<svg width="204" height="204" viewBox="0 0 204 204" fill="none" xmlns="http://www.w3.org/2000/svg">
<g id="fluent:box-20-filled">
<path id="Vector" d="M102 78.7926L136.834 64.9001L50.5835 30.456L20.8445 42.3278C19.344 42.9241 17.9349 43.728 16.6585 44.7159L102 78.7926ZM10.4025 54.6014C10.1342 55.8193 9.99929 57.0628 10 58.3098V146.096C9.99943 149.539 11.0323 152.903 12.9653 155.754C14.8984 158.604 17.6428 160.812 20.8445 162.09L87.05 188.531C90.04 189.726 93.122 190.541 96.25 190.988V88.8732L10.4025 54.6014ZM107.75 191C110.903 190.547 113.992 189.723 116.95 188.543L183.155 162.101C186.359 160.822 189.105 158.613 191.038 155.76C192.971 152.907 194.003 149.541 194 146.096V58.3098C194 57.0469 193.862 55.7954 193.598 54.5899L107.75 88.8732V191ZM187.341 44.7274L152.312 58.7232L66.0625 24.2791L87.05 15.8747C96.6469 12.0417 107.353 12.0417 116.95 15.8747L183.155 42.3163C184.656 42.9128 186.065 43.7167 187.341 44.7044V44.7274Z" fill="#006766"/>
</g>
</svg>
