<svg width="224" height="184" viewBox="0 0 224 184" fill="none" xmlns="http://www.w3.org/2000/svg">
<g id="Group 129">
<path id="Vector" d="M176.13 152.95C172.774 150.127 168.557 148.716 163.652 148.716H103.41L85.5092 143.564L88.3492 136.931L103.41 141.659H127.507C130.519 141.659 132.928 140.671 134.908 139.048C136.887 137.425 137.834 135.449 137.834 133.261C137.834 129.451 135.596 126.84 131.121 125.358L68.5554 106.375H51.7737V169.886L112.016 184L181.122 162.83C181.208 159.089 179.487 155.773 176.13 152.95ZM34.5617 106.375H0V184H34.5617V106.375Z" fill="#006766"/>
<path id="Union" fill-rule="evenodd" clip-rule="evenodd" d="M141.751 0H211.395C218.218 0 223.769 5.55232 223.769 12.3774V82.0136C223.769 88.8416 218.218 94.394 211.395 94.394H176.585L151.656 112.675C150.996 113.159 150.065 112.688 150.065 111.869L150.065 94.394H141.751C134.926 94.394 129.375 88.8401 129.375 82.0136V12.3774C129.375 5.55232 134.927 0 141.751 0ZM186.245 56.8719H205.585V37.5221H186.245V18.1842H166.91V37.5221H147.565V56.8719H166.91V76.2097H186.245V56.8719Z" fill="#006766"/>
</g>
</svg>
