<?xml version="1.0" encoding="UTF-8"?>
<svg id="SvgjsSvg1001" xmlns="http://www.w3.org/2000/svg" xmlns:xlink="http://www.w3.org/1999/xlink" viewBox="0 0 264.8 254.72">
  <defs>
    <style>
      .cls-1, .cls-2 {
        isolation: isolate;
      }

      .cls-2 {
        fill: #fff;
        font-family: Garamond-Bold, Garamond;
        font-size: 15.8px;
        font-weight: 700;
      }

      .cls-3 {
        fill: url(#radial-gradient);
      }

      .cls-3, .cls-4, .cls-5 {
        stroke-width: 0px;
      }

      .cls-3, .cls-5 {
        fill-rule: evenodd;
      }

      .cls-4 {
        opacity: 0;
      }

      .cls-5 {
        fill: #003336;
      }
    </style>
    <radialGradient id="radial-gradient" cx="664.98" cy="1019.95" fx="664.98" fy="1019.95" r="169.72" gradientTransform="translate(-380.52 -798.92) scale(.77)" gradientUnits="userSpaceOnUse">
      <stop offset="0" stop-color="#006766"/>
      <stop offset=".48" stop-color="#006766"/>
      <stop offset="1" stop-color="#006766"/>
    </radialGradient>
  </defs>
  <g id="SvgjsG1008">
    <rect class="cls-4" x=".16" width="262.72" height="254.72"/>
    <path class="cls-3" d="m34.21,112.93c-2.59-5.17,3.71-6.72,5.36-9.05,3.03,2.24.18,11.84-4.81,9.36,1.7-1.42,3.7-3.57,4.7-7.16-1.05,2.76-3.11,5.3-5.24,6.85h-.01Zm117.95,30.16c8.39-8.12,14.76-20.09,19.47-19.43,8.08,1.13,15.16,1.52,24.59-.39,12.47,2.29,13.75,2.21,24.7-4.17,1.82-.03,3.65-.05,5.48-.08-2.16-.32-4.3-.65-6.46-.98-10.61,5.7-12.09,5.54-23.96,3.19-4.99.46-9.98.92-14.97,1.39,5.02-2.93,9.6-4.67,14.64-6.17.05,0,.11,0,.16-.02v-.03c2.3-.69,4.7-1.34,7.28-2.04-2.64.41-5.04.74-7.31,1.11.22-2.99,2.56-7.62-2.38-9.39-.48,2.61-.21,5.9.95,8.66-1.78-3.31-1.82-6.28-1.56-8.51-4.4,1.36-2.13,7.61.91,9.61-3.8.71-7.28,1.66-11.01,3.44-2.98,1.43-3.43,2.07-6.74,1.61-1.91-.27-3.83-.54-5.74-.81,7.72-5.16,12.12-12.53,21.06-15.16-9.73,1.45-14.87,6.91-21.87,13.24-4.25,3.84-7.56,7.87-11.7,13.29-.08-2.98-.15-5.96-.22-8.94-.32-12.9-2.69-12,6.2-23.53-12.19,12.1-8.12,9.97-10.12,24.35-.93,6.74-1.39,9.66-4.16,12.66-5.35,5.8-10.73,16.07-12.06,22.52.88-12.33,9.35-14.25,5.8-27.48-2.85-7.58-4.5-12.61-5.12-19.18-.85-8.99,4.21-12.12,7-20.51,1.38-4.16,2.94-4.84,10.96-5.6,6.44-1.45,12.86-2.89,19.3-4.33-6.41.9-12.81,1.8-19.22,2.7,5.28-6.07,5.98-6.56,5.73-14.56-.84,7.07-1.76,7.8-6.87,12.84-10.92,2.2-10.69,1.46-14.39,11.94-3.35,4.18-7.76,7.67-8.18,13.08-7.26-11.87-6.81-18.15,1.74-26.25,5.68-5.37,6.77-9.12,9.62-16.61,8.5-1.99,15.1-4.05,22.98-7.77-7.73,2.67-14.31,4.27-22.4,5.48,4.4-10.12,12.98-7.85,18.65-16.44-10.44,9.91-13.32,3.08-20.33,16.18-3.47,6.51-4.45,10.37-10.1,15.23.05-3.77.36-5.06-1.75-8.13-6.8-9.92-9.07-14.24-10.11-27.44-.42,11.13-.8,14.95,4.5,24.61-10.38-5.84-20.22-6.38-22.98-20.53.86,14.97,11.46,18.14,21.96,24.24,9.27,5.4,2.35,8.83-.21,15.61-5.2,13.78,5.63,26.98,7.6,42.9l3.83,8.51-3.49-5.8c-3.27-4.7-6.54-9.41-9.81-14.11-4.45-6.41-5.45-7.88-5.8-15.52-.42-9.15-2.01-16.5-8.76-24.5,5.5,9.63,7.13,17.11,5.73,28.13-8.76-3.92-14.48-10.49-17.18-19.71,3.13-14.85,1.51-15.59-7.03-28.29,6.3,12.18,7.8,13.54,4.25,26.66-8.35-3.72-11.65-6.39-17.91-13.08.98-2.32,1.96-4.63,2.94-6.95-1.28,1.93-2.56,3.87-3.84,5.8-7.48-3.77-8.51-4.12-16.68-2.37,12.96-.86,17.35,5.7,25.27,14.39-5.32,5.84-22.74,3.44-30.09,1.88,8.16,3,19.61,4.29,29.01,2.83,10-1.56,10.07,2.95,13.6,10.1,5.24,10.59,12.89,8.9,16.92,15.29-8.65-.26-15.52-3.25-22.77-5.61.66-2.08-.38-4.84,0-6.47-2.05-.43-4.63,2.36-5.18,4.96-3.3-.82-6.77-1.38-10.58-1.38,3.77.46,7.21,1.41,10.49,2.58.08,1.09.63,2.05,1.91,2.56-.02-.56,0-1.18.05-1.83l.43.17c-.03.64-.02,1.25.04,1.84.87-.24,1.51-.59,1.96-1.02.44.18.87.37,1.31.55-.72.12-1.49.49-2.27,1.26,1.88,1.38,4.59,2.43,7.21,2.56-3.3.14-5.66-.97-7.33-2.02-.74,4.9,8.15,4.7,9.22,1.52-.65-.2-1.35-.71-2.09-1.27,3.3,1.42,6.64,2.79,10.22,3.8,10.77,3.03,11.23,3.47,14.87,15.45,2.76,9.1,1.68,15.38-1.12,30.12l-1.09,6.75.72-7.65c-1.69-3.51-4.4-8.74-5.84-11.86.95-4.9,4.76-11.8,1.96-20.03.46,8.35-.19,9.97-4.5,17.18-4.78-3.2-9.57-6.4-14.35-9.59-3.1-2.07-2.46-2.48-3.48-5.96-1.74-5.89-5.33-9.98-5.88-17.08-.5,8.16,3.28,11.69,3.6,19.05-18.09-4.04-21.06-7.01-33.85-20.61,2.73,3.65,5.45,7.31,8.18,10.96-13.21-.41-19.48.31-30.58-6.62,10.79,8.56,16.69,8.42,30.5,10.14,17.55,12.01,35.5,8.55,45.55,30.4,14.72,31.97-11.63,58.6-44.55,51.07,19,12.6,41.79,19.96,66.3,19.96s47.26-7.34,66.26-19.93c-26.11,8.02-51.2-6.38-53.83-31.26-1.57-14.8-1.43-22,8.2-31.32h0v-.04h-.01Zm-65.16-37.81l-.37-.11c.27-1.29.78-2.69,1.72-4.13-.68,1.31-1.12,2.79-1.35,4.24h0ZM200.27,26.14c2.73,4.34,6.81.27,9.33.1-.3-3.33-8.91-5.59-9.32-.65,1.86-.64,4.42-1.17,7.6-.27-2.59-.47-5.46-.08-7.61.82h0Zm-10.15-7.85c4.92.9,4.68-4.7,6.22-6.63-2.59-1.98-9.87,2.7-6.61,6.25.77-1.76,2.07-3.94,4.81-5.63-2.04,1.55-3.66,3.86-4.42,6h0Zm.55,1.12c4.73-1.62,5.33,3.96,7.14,5.63-2.26,2.34-10.17-1.21-7.47-5.2,1.02,1.62,2.63,3.59,5.59,4.85-2.25-1.22-4.19-3.28-5.27-5.27h.01Zm-1.88-1c-2.27-.12-4.95-1-7.02-2.51,2.4,2.14,4.87,2.76,6.78,2.99-2.46,4.15-9.05-1.48-7.89-4.53,2.29.92,7.58-.92,8.14,4.05h0Zm34.64,32.63c2.28-.49,5.17-.32,7.63.62-2.95-1.49-5.56-1.44-7.51-1.17,1.34-4.77,9.36-.93,9.03,2.4-2.51-.31-7.28,2.93-9.15-1.86h0Zm-7.78-12.14c4.58,1.99,5.63-3.52,7.56-5.04-2.07-2.52-10.23.39-7.86,4.59,1.15-1.54,2.91-3.36,5.96-4.39-2.34,1.04-4.43,2.93-5.67,4.83h0Zm.28,1.22c4.97-.51,4.29,5.07,5.67,7.11-2.74,1.76-9.62-3.49-6.09-6.76.62,1.82,1.75,4.09,4.34,5.99-1.91-1.7-3.33-4.14-3.93-6.34h0Zm-1.6-1.4c-2.18-.63-4.6-2.09-6.27-4.03,1.86,2.63,4.11,3.79,5.91,4.45-3.33,3.48-8.47-3.5-6.66-6.21,2.02,1.42,7.6.83,7.01,5.79h.01Zm-157.97-2.33c-2.02,5.48-7.52,1.9-10.37,2.3-.45-3.79,8.61-8.31,10.22-2.91-2.22-.28-5.2-.27-8.52,1.48,2.77-1.13,6.06-1.37,8.67-.87h0Zm90.02,43.57c1.66,4.1-3.24,4.9-4.64,6.58-2.18-1.89.59-9.05,4.24-6.85-1.39.98-3.05,2.5-4.02,5.18.98-2.05,2.7-3.86,4.42-4.91h0Zm-117.17,6.56c.7,4.5-4.4,4.16-6.19,5.51-1.74-2.41,2.7-8.94,5.86-5.87-1.62.66-3.64,1.79-5.24,4.25,1.46-1.82,3.61-3.24,5.57-3.89h0Zm1.2-1.52c.47-2.02,1.69-4.29,3.37-5.91-2.3,1.82-3.25,3.93-3.76,5.6-3.33-2.87,2.76-7.88,5.32-6.37-1.19,1.91-.38,6.96-4.93,6.66h0v.02Zm35.07-59.69c-1.09,2.93.95,4.17,2.83,5.21.74,1.79,1.88,3.33,4.63,2.83-.38-1.09-.99-2.22-1.76-3.26v-.54c1.04,1.16,1.7,2.37,2.16,3.43,2.19-2.38-.36-5.27-3.06-6.32-.97-1.67-2.59-2.76-4.38-1.62.53.35,1.1.78,1.66,1.31-.15.04-.28.08-.41.14-.54-.45-1.09-.85-1.65-1.16h-.02v-.02Zm-1.09.32c.7,4.5-4.4,4.16-6.19,5.51-1.74-2.41,2.7-8.94,5.86-5.87-1.62.66-3.64,1.79-5.24,4.25,1.46-1.82,3.61-3.24,5.57-3.89h0Zm1.2-1.52c.47-2.02,1.69-4.29,3.37-5.91-2.3,1.82-3.25,3.93-3.76,5.6-3.33-2.87,2.76-7.88,5.32-6.37-1.19,1.91-.38,6.96-4.93,6.66h0v.02Zm157.77,36.52c-.13-3.71,3.96-2.93,5.55-3.86,1.18,2.12-3.06,6.97-5.31,4.19,1.38-.38,3.12-1.1,4.66-2.93-1.36,1.33-3.23,2.27-4.89,2.6h-.01Zm-.76-.52c-1.36-1.01-2.66-2.66-3.31-4.44.61,2.31,1.88,3.71,2.96,4.63-3.23,1.56-4.99-4.63-3.02-6.05,1.04,1.51,5.07,2.56,3.37,5.86h0Zm.53,1.49c3.6.95,1.67,4.64,2.09,6.42-2.37.52-5.8-4.93-2.48-6.29-.04,1.42.15,3.3,1.46,5.3-.89-1.69-1.24-3.75-1.09-5.44h.02ZM86.72,13.05c-1.59,4.27,3.48,4.95,4.96,6.64,2.19-2.01-.85-9.3-4.57-6.93,1.46.97,3.2,2.49,4.28,5.21-1.06-2.08-2.89-3.9-4.68-4.93h.01Zm-1.09.32c.7,4.5-4.4,4.16-6.19,5.51-1.74-2.41,2.7-8.94,5.86-5.87-1.62.66-3.64,1.79-5.24,4.25,1.46-1.82,3.61-3.24,5.57-3.89h0Zm1.2-1.52c.47-2.02,1.69-4.29,3.37-5.91-2.3,1.82-3.25,3.93-3.76,5.6-3.33-2.87,2.76-7.88,5.32-6.37-1.19,1.91-.38,6.96-4.93,6.66h0v.02Zm35.37-4.8c-3.89,2.37-.33,6.04-.21,8.28,2.96-.22,5.07-7.84.7-8.27.54,1.66.99,3.93.14,6.74.45-2.29.14-4.85-.63-6.77h0v.02Zm-1.05-.42c-2.23,3.97-6.03.55-8.28.5.12-2.97,7.65-5.35,8.24-.99-1.68-.49-3.96-.84-6.75.1,2.27-.53,4.84-.32,6.78.39h.01Zm1.89-.46c1.62-1.29,3.97-2.33,6.3-2.56-2.93,0-4.98,1.08-6.42,2.08-.85-4.32,7.05-4.48,8.11-1.71-2.11.76-4.6,5.23-7.99,2.19h0Zm-21.63,2.86c-.99,2.46-2.98,5.1-5.43,6.81,3.27-1.85,4.89-4.34,5.87-6.36,3.66,4.29-5.06,9.44-7.99,7.01,1.88-2.18,1.86-8.74,7.56-7.47h-.01Zm-.59-1.33c-1.17-2.39-3.34-4.87-5.91-6.4,3.4,1.6,5.2,3.96,6.32,5.91,3.33-4.55-5.74-9.04-8.49-6.41,2.03,2.04,2.49,8.58,8.08,6.89h0Zm2.15,1.25c.42,5.83,6.7,3.91,9.32,5.09,1.48-3.51-5.97-10.38-9.02-5.64,2.22.35,5.07,1.19,7.78,3.79-2.35-1.86-5.44-3-8.08-3.24h0Zm-22.68,17.56c-5.7,1.27-5.67-5.29-7.56-7.47,2.94-2.43,11.66,2.73,7.99,7.01-.98-2.02-2.59-4.5-5.87-6.36,2.45,1.72,4.44,4.35,5.43,6.81h.01Zm63.75-20.41c4,.76,2.17,4.95,2.77,6.87-2.55.74-6.7-4.97-3.17-6.7.07,1.56.41,3.6,1.99,5.69-1.09-1.77-1.64-4.01-1.59-5.86h0Zm.75-.69c3.11,2.63,5.21-1.43,7.08-2.17-1.03-2.45-8.08-2.08-7.2,1.75,1.25-.93,3.06-1.95,5.67-2.03-2.07.27-4.14,1.25-5.55,2.46h0Zm-1.72.21c-1.76-.58-4.05-.7-6.07-.16,2.46-.92,4.5-.65,6.02-.27-.65-3.87-7.3-1.55-7.32,1.11,2.01-.02,5.49,2.93,7.37-.68h0Zm25.58,5.01c1.02,3.94,5.08,1.85,7.03,2.32.57-2.59-5.39-6.36-6.89-2.73,1.56-.04,3.62.18,5.8,1.62-1.84-.98-4.1-1.37-5.95-1.21h0Zm-1.52-.82c-3.63,1.86-4.76-2.57-6.41-3.71,1.56-2.16,8.34-.21,6.62,3.33-1.02-1.19-2.54-2.59-5.07-3.26,1.96.72,3.76,2.16,4.86,3.64h0Zm-14.24,4.96c5.01-1.09,2.58-6.31,3.28-8.74-3.24-.85-8.29,6.47-3.8,8.54.04-1.97.41-4.55,2.34-7.23-1.32,2.27-1.94,5.1-1.82,7.44h0Zm-1.21.63c-2.49-4.49-6.78-.65-9.32-.62.12,3.35,8.58,6.07,9.27,1.17-1.89.53-4.47.92-7.6-.15,2.56.62,5.44.38,7.65-.4h0Zm46.19,18.18c1.37-1.54,3.52-2.95,5.76-3.56-2.88.49-4.71,1.89-5.96,3.11-1.55-4.1,6.17-5.57,7.69-3.03-1.95,1.1-3.65,5.91-7.49,3.48h0Zm-12.52-2.16c1.59-1.25,3.09-3.26,3.82-5.41-.65,2.79-2.12,4.5-3.4,5.64,3.91,1.76,5.81-5.7,3.42-7.33-1.19,1.84-5.98,3.22-3.84,7.11h0Zm-55.29-16.28c.72-2.22,2.3-4.65,4.34-6.3-2.76,1.82-4.02,4.1-4.76,5.93-3.46-3.54,3.86-8.58,6.58-6.63-1.52,2.02-1.1,7.77-6.17,7.01h0Zm20.56,93.47c-2.04-4.07,2.92-5.3,4.21-7.13,2.39,1.76.15,9.33-3.78,7.38,1.34-1.12,2.92-2.82,3.7-5.64-.83,2.18-2.45,4.18-4.12,5.4h-.01Zm26.73-14.4c2.71-4.36,6.81-.32,9.33-.15-.28,3.33-8.87,5.64-9.32.71,1.87.62,4.43,1.14,7.6.22-2.59.49-5.46.12-7.61-.78h0Zm-118.89,5.12c-1.87-.21-4.06-1.06-5.7-2.42,1.89,1.89,3.9,2.52,5.47,2.8-2.24,3.32-7.42-1.66-6.32-4.13,1.85.87,6.33-.39,6.55,3.75h0Zm4.33-58.14c-2.73,4.34-6.81.27-9.33.1.3-3.33,8.91-5.59,9.32-.65-1.86-.64-4.42-1.17-7.6-.27,2.59-.47,5.46-.08,7.61.82h0Zm9.61-6.73c-1.08,2-3.02,4.05-5.27,5.27,2.96-1.26,4.57-3.23,5.59-4.85,2.7,4-5.2,7.54-7.47,5.2,1.81-1.68,2.41-7.25,7.14-5.63h0Zm1.88-1c.55-4.97,5.85-3.13,8.14-4.05,1.15,3.05-5.44,8.68-7.89,4.53,1.9-.23,4.37-.85,6.78-2.99-2.07,1.51-4.75,2.39-7.02,2.51h-.01Zm-34.64,32.63c-1.86,4.78-6.64,1.56-9.15,1.86-.33-3.33,7.69-7.17,9.03-2.4-1.95-.28-4.56-.32-7.51,1.17,2.45-.95,5.34-1.11,7.63-.62h0Zm7.78-12.14c-4.58,1.99-5.63-3.52-7.56-5.04,2.07-2.52,10.23.39,7.85,4.59-1.15-1.54-2.91-3.36-5.96-4.39,2.34,1.04,4.43,2.93,5.67,4.83h0Zm-.28,1.22c-.59,2.19-2.02,4.63-3.93,6.34,2.59-1.9,3.72-4.18,4.34-5.99,3.54,3.28-3.35,8.53-6.09,6.76,1.38-2.04.7-7.61,5.67-7.11h.01Zm1.6-1.4c-.59-4.97,4.99-4.38,7.01-5.79,1.82,2.71-3.32,9.69-6.66,6.21,1.8-.65,4.06-1.82,5.91-4.45-1.67,1.94-4.08,3.4-6.27,4.03h0Zm157.97-2.33c2.6-.5,5.9-.26,8.67.87-3.33-1.75-6.3-1.76-8.52-1.48,1.62-5.4,10.67-.87,10.22,2.91-2.85-.4-8.35,3.18-10.37-2.3h0Zm24.06,30.35c3.16,3.61,6.33-.75,8.64-1.29-.77-3.03-9.05-3.85-8.71.77,1.62-.86,3.91-1.73,6.98-1.37-2.46-.05-5.06.73-6.91,1.89h0Zm-.25,1.17c4.53,1.59,1.66,6.16,2.02,8.5-3.1.42-6.94-6.97-2.53-8.37-.2,1.83-.15,4.27,1.32,6.98-.96-2.26-1.2-4.97-.82-7.11h0Zm-.82-1.87c-1.64-1.44-3.13-3.7-3.8-6.07.54,3.04,2.02,4.97,3.32,6.29-4.33,1.66-5.94-6.51-3.25-8.11,1.18,2.06,6.26,3.83,3.72,7.9h0Zm-128.05,33.79c.16,1.6-.15,3.57-.99,5.18,1.23-1.92,1.39-3.7,1.35-5.06,3.16,1.26-.05,6.48-2.3,6.01.39-1.7-1.47-5.2,1.94-6.13h0Zm-5.33-8.15c-3.41-.93-1.55-4.43-1.94-6.13,2.26-.47,5.47,4.74,2.3,6.01.05-1.36-.12-3.14-1.35-5.06.83,1.61,1.15,3.58.99,5.18h0Zm-18.01-43.4c-2.63,1.13-3.21-2.02-4.32-2.89,1.19-1.43,5.85.24,4.49,2.64-.65-.88-1.66-1.93-3.4-2.52,1.34.6,2.53,1.69,3.23,2.77h0Zm.25.92c1.89.45,4,1.59,5.5,3.18-1.69-2.16-3.66-3.06-5.22-3.54,2.69-3.1,7.35,2.63,5.93,5-1.78-1.12-6.5-.39-6.21-4.64h0Zm102.14,2.83c1.4.96,2.77,2.57,3.51,4.34-.7-2.3-2.03-3.66-3.16-4.56,3.2-1.69,5.2,4.47,3.27,5.97-1.1-1.48-5.2-2.38-3.62-5.77h0v.02Zm-31,63.68c-1.98-1.76-3.79-4.53-4.57-7.41.63,3.71,2.43,6.07,4,7.68-5.27,1.99-7.17-7.95-3.89-9.89,1.42,2.51,7.59,4.7,4.47,9.64h0v-.02Zm-4.77-65.56c1.4.96,2.77,2.57,3.51,4.34-.7-2.3-2.03-3.66-3.16-4.56,3.2-1.69,5.2,4.47,3.27,5.97-1.1-1.48-5.2-2.38-3.62-5.77h0v.02Zm-34.73-1.9c1.59,3.39-2.52,4.29-3.62,5.77-1.92-1.5.08-7.67,3.27-5.97-1.12.89-2.46,2.25-3.16,4.56.73-1.77,2.1-3.38,3.51-4.34h0v-.02Zm-19.63,26.51c.35,5.12-5.34,4.24-7.48,5.59-1.72-2.87,3.89-9.77,7.14-6.03-1.88.59-4.26,1.66-6.29,4.27,1.81-1.91,4.36-3.29,6.63-3.83h0Zm25.23-29.63c-3.01-1.76-.34-4.62-.27-6.34,2.27.13,3.99,5.92.65,6.31.39-1.28.7-3.03.02-5.17.38,1.75.18,3.7-.39,5.18h0v.02Zm52.41,23.52c3.43-.95,3.63,3.04,4.84,4.31-1.71,1.57-7.18-1.29-5.1-4.02.66,1.2,1.72,2.66,3.77,3.69-1.55-.97-2.84-2.51-3.53-3.98h.02Zm-4.95-1.84c.25-2.02,1.2-4.36,2.68-6.11-2.06,2.01-2.76,4.17-3.09,5.86-3.55-2.46,1.89-7.98,4.53-6.76-.96,1.99.35,6.83-4.12,7.01h0Zm-98.66,5.82c3.15,3.19-1.12,5.84-1.77,7.95-2.77-.92-2.98-8.68,1.29-8.05-.92,1.46-1.87,3.52-1.74,6.4.12-2.29,1.02-4.66,2.21-6.3h.01Zm-19.91,29.78c.17-1.67-.16-3.73-1.03-5.42,1.29,2,1.46,3.87,1.41,5.3,3.32-1.32-.05-6.78-2.41-6.29.41,1.78-1.54,5.44,2.03,6.42h0Zm57.26,17.57c-4.87-1.32-2.21-6.32-2.76-8.74,3.22-.67,7.8,6.77,3.28,8.57.07-1.93-.17-4.48-1.92-7.21,1.19,2.29,1.64,5.1,1.4,7.38h0Zm-24.78-10.96c-4.87-1.32-2.21-6.32-2.76-8.74,3.22-.67,7.8,6.77,3.28,8.57.07-1.93-.17-4.48-1.92-7.21,1.19,2.29,1.64,5.1,1.4,7.38h0Zm-29.58-.53c.02,1.94-.59,4.27-1.76,6.11,1.69-2.16,2.09-4.29,2.18-5.92,3.66,1.87-.78,7.78-3.43,6.96.66-1.99-1.19-6.41,3.01-7.14h0Zm19.88,5.04c-1.2,1.78-3.23,3.52-5.45,4.45,2.9-.9,4.6-2.59,5.72-4.02,2.16,4.01-5.6,6.59-7.51,4.17,1.86-1.4,2.96-6.58,7.24-4.6h0Zm17.78,7.98c-.62,2.21-2.06,4.66-4,6.36,2.63-1.9,3.78-4.19,4.42-6.01,3.55,3.33-3.43,8.58-6.18,6.78,1.4-2.05.75-7.67,5.77-7.12h0Zm18.62,10.85c-1.47,2.18-3.95,4.31-6.68,5.46,3.56-1.1,5.64-3.17,7.01-4.93,2.64,4.91-6.87,8.08-9.2,5.11,2.28-1.72,3.63-8.07,8.88-5.64h-.01Zm12.8-52.43c1.72,1.05,3.44,2.86,4.42,4.91-.98-2.68-2.63-4.2-4.02-5.18,3.66-2.2,6.43,4.96,4.24,6.85-1.39-1.68-6.3-2.48-4.64-6.58h0Zm-6.1-6.14c1.92,4.76-3.76,5.68-5.38,7.63-2.53-2.19.68-10.49,4.92-7.94-1.61,1.14-3.53,2.89-4.67,6.01,1.13-2.37,3.13-4.47,5.12-5.69h0Zm11.55-1.2c-4.43,2.58-6.16-2.92-8.31-4.24,1.82-2.81,10.48-.82,8.56,3.75-1.36-1.43-3.37-3.09-6.61-3.76,2.51.79,4.87,2.46,6.36,4.26h0Zm2.96-13.79c.35,5.12-5.34,4.24-7.48,5.59-1.72-2.87,3.89-9.77,7.14-6.03-1.88.59-4.26,1.66-6.29,4.27,1.81-1.91,4.36-3.29,6.63-3.83h0Zm15.39,40.07c3.18-4.03,6.8.45,9.29.89-.65,3.28-9.45,4.62-9.34-.33,1.79.83,4.27,1.62,7.52,1.07-2.63.19-5.44-.49-7.48-1.62h0Zm1.82-12.3c4.98-1.22,5.08,4.53,6.78,6.42-2.53,2.19-10.29-2.17-7.15-6.01.89,1.76,2.36,3.91,5.27,5.47-2.19-1.46-3.98-3.74-4.9-5.88h0Zm5.41-12.8c4.98-1.22,5.08,4.53,6.78,6.42-2.53,2.19-10.29-2.18-7.15-6.01.89,1.76,2.36,3.91,5.27,5.47-2.19-1.46-3.98-3.74-4.9-5.88h0Zm-72.65-13.56c3.15,3.19-1.12,5.84-1.77,7.95-2.77-.92-2.98-8.68,1.29-8.05-.92,1.46-1.87,3.52-1.74,6.4.12-2.29,1.02-4.66,2.21-6.3h0Zm-5.4-3.16c.35,5.12-5.34,4.24-7.48,5.59-1.72-2.87,3.89-9.77,7.14-6.03-1.88.59-4.26,1.66-6.29,4.27,1.81-1.91,4.36-3.29,6.63-3.83h0Zm24.17-3.31c.35,5.12-5.34,4.24-7.48,5.59-1.72-2.87,3.89-9.77,7.14-6.03-1.88.59-4.26,1.66-6.29,4.27,1.81-1.91,4.36-3.29,6.63-3.83h0Zm9.91-12.19c.35,5.12-5.34,4.24-7.48,5.59-1.72-2.87,3.89-9.77,7.14-6.03-1.88.59-4.26,1.66-6.29,4.27,1.81-1.91,4.36-3.29,6.63-3.83h0Zm15.66-9.47c.35,5.12-5.34,4.24-7.48,5.59-1.72-2.87,3.89-9.77,7.14-6.03-1.88.59-4.26,1.66-6.29,4.27,1.81-1.91,4.36-3.29,6.63-3.83h0Zm40.01,3.16c1.09,1.56,1.89,3.8,1.95,5.94.18-2.69-.68-4.64-1.5-6.03,4.02-.5,3.67,6.75,1.05,7.56-.57-1.99-4.51-4.56-1.5-7.48h0Zm-3.17-.45c-3.71,1.95-4.93-2.6-6.64-3.76,1.58-2.23,8.58-.29,6.85,3.36-1.05-1.22-2.64-2.64-5.26-3.31,2.02.73,3.89,2.19,5.04,3.7h0Zm-15.79,9.53c.35,5.12-5.34,4.24-7.48,5.59-1.72-2.87,3.89-9.77,7.14-6.03-1.88.59-4.26,1.66-6.29,4.27,1.81-1.91,4.36-3.29,6.63-3.83h0Zm-1.18,34.16c-1.98-1.76-3.79-4.53-4.57-7.41.63,3.7,2.43,6.07,4,7.68-5.27,1.99-7.17-7.95-3.89-9.89,1.42,2.51,7.59,4.7,4.47,9.64h0v-.02Zm12.81-12.1c-1.99-1.76-3.79-4.53-4.57-7.41.63,3.7,2.43,6.07,4,7.68-5.27,1.99-7.17-7.95-3.89-9.89,1.42,2.51,7.59,4.7,4.47,9.64h0v-.02Zm17.13,34.28c-1.98-1.76-3.79-4.53-4.57-7.41.63,3.71,2.43,6.07,4,7.68-5.27,1.99-7.17-7.95-3.9-9.89,1.42,2.51,7.59,4.7,4.47,9.64h0v-.02Zm11.94-9.98c-1.98-1.76-3.79-4.53-4.57-7.41.63,3.7,2.43,6.07,4,7.68-5.27,1.99-7.17-7.95-3.89-9.9,1.42,2.51,7.59,4.7,4.47,9.64h0Zm51.59-4.49c1.59,4.27-3.48,4.95-4.96,6.64-2.19-2.01.85-9.29,4.57-6.93-1.46.97-3.2,2.49-4.28,5.21,1.06-2.08,2.89-3.9,4.68-4.93h0Zm1.09.32c-.7,4.5,4.4,4.16,6.19,5.51,1.74-2.41-2.7-8.94-5.86-5.87,1.62.66,3.64,1.79,5.24,4.25-1.46-1.82-3.61-3.24-5.57-3.89h0Zm-1.2-1.52c-.47-2.02-1.69-4.29-3.37-5.91,2.3,1.82,3.25,3.93,3.76,5.6,3.33-2.87-2.76-7.88-5.32-6.37,1.19,1.91.38,6.96,4.93,6.66h0v.02Zm-16.9-33.47c1.59,4.27-3.48,4.95-4.96,6.64-2.19-2.01.85-9.29,4.57-6.93-1.46.97-3.2,2.49-4.28,5.21,1.06-2.08,2.89-3.9,4.68-4.93h0Zm1.09.32c1.97.65,4.12,2.06,5.57,3.89-1.6-2.46-3.63-3.59-5.24-4.25,3.16-3.06,7.6,3.46,5.86,5.87-1.79-1.36-6.9-1.01-6.19-5.51h0Zm-1.2-1.52c-4.55.29-3.74-4.76-4.93-6.66,2.56-1.52,8.65,3.5,5.32,6.37-.51-1.67-1.46-3.79-3.76-5.6,1.69,1.62,2.9,3.89,3.37,5.91h0v-.02Zm-18.06-25.01c1.59,4.27-3.48,4.95-4.96,6.64-2.19-2.01.85-9.29,4.57-6.93-1.46.97-3.2,2.49-4.28,5.21,1.06-2.08,2.89-3.9,4.68-4.93h0Zm1.09.32c1.96.65,4.12,2.06,5.57,3.89-1.6-2.46-3.63-3.59-5.24-4.25,3.16-3.06,7.6,3.46,5.86,5.87-1.79-1.36-6.9-1.01-6.19-5.51h0Zm-1.2-1.52c-.47-2.02-1.69-4.29-3.37-5.91,2.3,1.82,3.25,3.93,3.76,5.6,3.33-2.87-2.76-7.88-5.32-6.37,1.19,1.91.38,6.96,4.93,6.66h0v.02ZM39.67,75.64c-1.66-.33-3.53-1.27-4.89-2.6,1.54,1.83,3.28,2.56,4.66,2.93-2.26,2.79-6.49-2.06-5.31-4.19,1.59.92,5.68.15,5.55,3.86h0Zm.76-.52c-1.7-3.3,2.33-4.35,3.37-5.86,1.97,1.42.21,7.61-3.02,6.05,1.09-.92,2.36-2.33,2.96-4.63-.66,1.79-1.96,3.43-3.31,4.44h0Zm-.53,1.49c.15,1.68-.2,3.75-1.09,5.44,1.31-2,1.5-3.88,1.46-5.3,3.32,1.36-.11,6.81-2.48,6.29.43-1.78-1.49-5.48,2.1-6.42h.01Zm-4.28,19.59c3.35-4.72,7.68.12,10.51.47-.55,3.73-10.36,5.74-10.52.15,2.06.83,4.9,1.59,8.53.78-2.94.37-6.15-.25-8.51-1.4h0Zm-.45-1.37c-.72-2.53-.77-5.79.1-8.62-1.43,3.43-1.19,6.36-.72,8.53-5.47-1.13-1.79-10.45,1.99-10.34-.15,2.85,3.86,7.95-1.36,10.43h0Zm-.75,2.35c-1.79,1.93-3.3,4.83-3.79,7.75.27-3.71,1.81-6.21,3.2-7.95-5.39-1.46-6.3,8.53-2.88,10.12,1.15-2.61,7.03-5.37,3.47-9.92h0ZM176.33,28.09c1.59,4.27-3.48,4.96-4.96,6.64-2.19-2.01.85-9.29,4.56-6.93-1.46.97-3.2,2.49-4.28,5.21,1.06-2.08,2.89-3.9,4.68-4.93h0Zm1.09.32c1.97.65,4.12,2.06,5.57,3.89-1.6-2.46-3.63-3.59-5.24-4.25,3.16-3.06,7.6,3.46,5.86,5.87-1.79-1.36-6.9-1.01-6.19-5.51h0Zm-1.2-1.52c-.47-2.02-1.69-4.29-3.37-5.91,2.3,1.82,3.25,3.93,3.76,5.6,3.33-2.87-2.76-7.88-5.32-6.37,1.19,1.91.38,6.96,4.93,6.66h0v.02Zm-35.37-4.8c3.89,2.37.33,6.04.21,8.28-2.96-.22-5.07-7.84-.7-8.27-.54,1.66-.99,3.93-.14,6.74-.45-2.29-.14-4.85.63-6.77h0v.02Zm1.05-.42c1.95-.71,4.51-.92,6.78-.39-2.78-.94-5.07-.58-6.75-.1.59-4.36,8.11-1.98,8.24.99-2.25.05-6.04,3.47-8.28-.5h0Zm-1.89-.46c-1.62-1.29-3.97-2.33-6.3-2.56,2.93,0,4.98,1.08,6.42,2.08.85-4.32-7.05-4.48-8.12-1.71,2.11.76,4.6,5.23,7.99,2.19h0Zm21.63,2.86c.99,2.46,2.98,5.1,5.43,6.81-3.27-1.85-4.89-4.34-5.87-6.36-3.66,4.29,5.06,9.44,7.99,7.01-1.88-2.18-1.86-8.74-7.56-7.47h0Zm.59-1.33c1.17-2.39,3.34-4.87,5.91-6.4-3.4,1.6-5.2,3.96-6.32,5.91-3.33-4.55,5.74-9.05,8.49-6.41-2.03,2.04-2.49,8.58-8.08,6.89h0Zm-2.15,1.25c-.42,5.83-6.7,3.91-9.32,5.09-1.48-3.51,5.97-10.38,9.02-5.64-2.22.35-5.07,1.19-7.78,3.79,2.35-1.86,5.44-3,8.08-3.24h0Zm22.68,17.56c.99-2.46,2.98-5.1,5.43-6.81-3.27,1.85-4.89,4.34-5.87,6.36-3.66-4.29,5.06-9.44,7.99-7.01-1.88,2.18-1.86,8.74-7.56,7.47h0Zm.59,1.33c5.6-1.69,6.05,4.86,8.08,6.89-2.75,2.63-11.82-1.86-8.49-6.41,1.12,1.94,2.92,4.3,6.32,5.91-2.57-1.53-4.75-4.01-5.91-6.4h0Zm-2.15-1.25c-2.64-.24-5.74-1.39-8.08-3.24,2.71,2.6,5.57,3.43,7.78,3.79-3.06,4.73-10.49-2.12-9.02-5.64,2.63,1.17,8.9-.74,9.32,5.09h0Zm10.67,16.31c-2.64-.29-5.71-1.5-8.02-3.4,2.66,2.66,5.49,3.54,7.7,3.94-3.15,4.67-10.45-2.34-8.9-5.82,2.6,1.22,8.92-.55,9.22,5.27h0Zm1.12-.93c-3.13-4.93,3.05-7.13,4.47-9.64,3.28,1.94,1.39,11.89-3.89,9.89,1.57-1.6,3.36-3.96,4-7.68-.79,2.89-2.59,5.65-4.57,7.41h0v.02Zm-.63,2.41c.48,2.61.21,5.9-.95,8.66,1.78-3.31,1.82-6.28,1.56-8.51,5.38,1.67.77,10.68-3.01,10.2.42-2.85-3.1-8.38,2.39-10.35h0Zm10.42,8.49c-.31,5.84-6.61,4.05-9.22,5.27-1.55-3.48,5.75-10.49,8.9-5.82-2.21.4-5.04,1.29-7.7,3.94,2.31-1.9,5.38-3.11,8.02-3.4h0Zm1.12.93c1.98,1.76,3.79,4.53,4.57,7.41-.63-3.71-2.43-6.07-4-7.67,5.27-1.99,7.17,7.95,3.89,9.89-1.42-2.51-7.59-4.7-4.47-9.64h0Zm-.63-2.41c-5.5-1.97-1.97-7.5-2.39-10.35,3.78-.49,8.39,8.53,3.01,10.2.25-2.22.22-5.2-1.56-8.51,1.15,2.76,1.42,6.05.95,8.66h0Zm11.81,19.38c-.31,5.84-6.61,4.05-9.22,5.27-1.55-3.48,5.75-10.49,8.9-5.82-2.21.4-5.04,1.29-7.7,3.94,2.31-1.9,5.38-3.11,8.02-3.4h0Zm1.12.93c1.98,1.76,3.79,4.53,4.57,7.41-.63-3.7-2.43-6.07-4-7.68,5.27-1.99,7.17,7.95,3.9,9.9-1.42-2.51-7.59-4.7-4.47-9.64h0Zm-.63-2.41c-5.5-1.98-1.97-7.5-2.39-10.35,3.78-.49,8.39,8.53,3.01,10.2.25-2.22.22-5.2-1.56-8.51,1.15,2.76,1.43,6.05.95,8.66h0Zm-18.69,1.84c-2.64-.29-5.71-1.5-8.02-3.4,2.66,2.66,5.49,3.55,7.7,3.94-3.15,4.67-10.45-2.34-8.9-5.82,2.6,1.22,8.92-.55,9.22,5.27h0Zm1.12-.93c-3.13-4.93,3.05-7.13,4.47-9.64,3.28,1.94,1.39,11.89-3.89,9.9,1.57-1.6,3.36-3.96,4-7.68-.79,2.89-2.59,5.65-4.57,7.41h0Zm-.63,2.41c.48,2.61.21,5.9-.95,8.66,1.78-3.31,1.82-6.28,1.56-8.51,5.38,1.67.77,10.68-3.01,10.2.42-2.85-3.1-8.38,2.39-10.35h0Zm19.09,16.7c.31-5.84,6.61-4.05,9.22-5.27,1.55,3.48-5.75,10.49-8.9,5.82,2.21-.4,5.04-1.29,7.7-3.94-2.31,1.9-5.38,3.11-8.02,3.4h0Zm-1.12-.93c-1.98-1.76-3.79-4.53-4.57-7.41.63,3.7,2.43,6.07,4,7.68-5.27,1.99-7.17-7.95-3.89-9.9,1.42,2.51,7.59,4.7,4.47,9.64h0Zm.63,2.41c5.5,1.97,1.97,7.5,2.39,10.35-3.78.48-8.39-8.53-3.01-10.2-.25,2.22-.22,5.2,1.56,8.51-1.15-2.76-1.42-6.05-.95-8.66h0ZM119.02,21.12c-4,.76-2.17,4.95-2.76,6.87,2.55.74,6.7-4.97,3.17-6.7-.07,1.56-.41,3.6-1.99,5.69,1.09-1.77,1.63-4.01,1.59-5.86h0Zm-.75-.69c-3.11,2.63-5.21-1.43-7.08-2.17,1.03-2.45,8.08-2.08,7.2,1.75-1.25-.93-3.06-1.95-5.67-2.03,2.07.27,4.14,1.25,5.55,2.46h0Zm1.72.21c1.76-.58,4.05-.7,6.07-.16-2.46-.92-4.5-.65-6.02-.27.65-3.87,7.3-1.54,7.33,1.11-2.01-.02-5.49,2.93-7.38-.68h0Zm-24.57,5.14c-2.82,2.93,1.09,5.3,1.71,7.21,2.51-.87,2.59-7.92-1.28-7.3.85,1.31,1.75,3.17,1.66,5.8-.13-2.08-.98-4.22-2.09-5.7h0Zm-1.01-.12c-1.02,3.94-5.08,1.84-7.03,2.32-.57-2.59,5.39-6.37,6.89-2.73-1.56-.04-3.62.18-5.8,1.62,1.84-.98,4.1-1.37,5.95-1.21h0Zm1.52-.82c1.1-1.49,2.9-2.92,4.86-3.64-2.53.67-4.06,2.07-5.07,3.26-1.72-3.53,5.07-5.48,6.62-3.33-1.65,1.14-2.79,5.57-6.41,3.71h0Zm14.24,4.96c-5.01-1.09-2.58-6.31-3.28-8.74,3.24-.85,8.29,6.47,3.8,8.54-.04-1.97-.41-4.55-2.34-7.23,1.32,2.27,1.94,5.1,1.82,7.44h0Zm-.96.84c-3.84-3.4-6.61,1.64-8.98,2.52,1.22,3.12,10.12,2.87,9.13-1.98-1.61,1.13-3.91,2.36-7.21,2.39,2.62-.27,5.27-1.45,7.08-2.92h-.02Zm2.18-.21c2.49-4.49,6.78-.65,9.32-.62-.12,3.35-8.58,6.07-9.27,1.18,1.89.53,4.47.92,7.6-.15-2.56.62-5.44.38-7.65-.4h0Zm-45.47,19.05c-.23,2.05-1.17,4.43-2.65,6.23,2.06-2.06,2.76-4.27,3.07-5.98,3.63,2.45-1.82,8.12-4.53,6.91.95-2.02-.43-6.93,4.1-7.16h.01Zm-.72-.87c-3.83,2.43-5.54-2.38-7.48-3.48,1.51-2.55,9.24-1.07,7.69,3.03-1.25-1.22-3.08-2.62-5.96-3.11,2.24.61,4.39,2.02,5.76,3.56h-.01Zm1.87.49c2.03-.37,4.59-.16,6.73.74-2.57-1.39-4.88-1.42-6.61-1.22,1.3-4.18,8.3-.59,7.92,2.35-2.21-.33-6.51,2.4-8.05-1.87h.01Zm3.5,10.86c3.85.2,2.68,4.37,3.49,6.08-2.29,1.02-6.93-3.79-3.84-5.87.26,1.46.85,3.33,2.61,5.08-1.25-1.52-2.06-3.55-2.25-5.29h-.01Zm.62-.74c1.16-1.31,2.99-2.5,4.89-3.03-2.45.42-4,1.6-5.06,2.64-1.32-3.48,5.24-4.73,6.53-2.57-1.66.93-3.1,5.01-6.36,2.96h0Zm-1.59.42c-1.3,3.63-4.95,1.31-6.83,1.59-.32-2.49,5.63-5.54,6.73-1.99-1.47-.17-3.43-.14-5.61,1.03,1.82-.76,3.99-.95,5.71-.63h0Zm9.15-12.59c1.65-1.16,4.01-2.02,6.28-2.09-2.86-.18-4.91.74-6.37,1.62-.55-4.25,7.14-3.93,8.01-1.16-2.1.62-4.8,4.8-7.91,1.63h0Zm-.17,1.09c4.27,1.24,1.85,5.6,2.3,7.75-2.85.54-6.77-6.08-2.76-7.6-.09,1.7.08,3.96,1.59,6.38-1.01-2.04-1.37-4.53-1.12-6.53h0Zm-.85-1.69c-1.59-1.25-3.09-3.26-3.82-5.41.65,2.79,2.12,4.5,3.4,5.64-3.91,1.76-5.81-5.7-3.42-7.33,1.19,1.84,5.98,3.22,3.84,7.11h0Zm11.51-8.78c1.65-1.16,4.01-2.02,6.28-2.09-2.86-.18-4.91.75-6.37,1.62-.55-4.25,7.14-3.93,8.01-1.16-2.1.61-4.8,4.8-7.91,1.63h0Zm-.17,1.09c4.27,1.24,1.85,5.6,2.3,7.75-2.85.54-6.77-6.08-2.76-7.6-.08,1.7.08,3.96,1.59,6.38-1.01-2.04-1.37-4.53-1.12-6.53h0Zm-.85-1.69c2.14-3.9-2.65-5.27-3.84-7.11-2.4,1.62-.49,9.08,3.42,7.33-1.26-1.14-2.74-2.86-3.4-5.64.73,2.16,2.23,4.17,3.82,5.41h0Zm45.04-5.57c2.19,4.64-3.43,5.89-4.93,7.93-2.65-2.05.07-10.51,4.46-8.21-1.54,1.23-3.36,3.09-4.3,6.26.99-2.43,2.86-4.65,4.78-5.97h-.01Zm1.25.25c-.35,5.12,5.34,4.24,7.48,5.59,1.72-2.87-3.89-9.77-7.14-6.03,1.88.59,4.26,1.66,6.29,4.27-1.81-1.91-4.36-3.29-6.63-3.83h0Zm-1.49-1.6c-.72-2.22-2.3-4.65-4.34-6.3,2.76,1.82,4.02,4.1,4.76,5.93,3.46-3.54-3.86-8.58-6.58-6.63,1.52,2.02,1.09,7.77,6.17,7.01h0Zm4.13,18.56c1.92,1.32,3.79,3.54,4.78,5.97-.95-3.16-2.76-5.04-4.3-6.26,4.39-2.3,7.11,6.17,4.46,8.21-1.5-2.03-7.12-3.29-4.93-7.93h-.01Zm-1.25.25c.35,5.12-5.34,4.24-7.48,5.59-1.72-2.87,3.89-9.77,7.14-6.03-1.88.59-4.26,1.66-6.29,4.27,1.81-1.91,4.36-3.29,6.63-3.83h0Zm1.49-1.6c.72-2.22,2.3-4.65,4.34-6.3-2.76,1.82-4.02,4.1-4.76,5.93-3.46-3.53,3.86-8.58,6.58-6.63-1.52,2.02-1.09,7.77-6.17,7.01h0Zm13.05-11.7c2.19-4.64-3.43-5.89-4.93-7.93-2.65,2.05.07,10.51,4.46,8.21-1.54-1.23-3.36-3.09-4.3-6.26.99,2.43,2.86,4.65,4.78,5.97h-.01Zm1.25-.25c-.35-5.12,5.34-4.24,7.48-5.59,1.72,2.87-3.89,9.77-7.14,6.03,1.88-.59,4.26-1.66,6.29-4.27-1.81,1.9-4.36,3.29-6.63,3.83h0Zm-1.49,1.6c-.72,2.22-2.3,4.65-4.34,6.3,2.76-1.82,4.03-4.1,4.76-5.93,3.46,3.54-3.86,8.58-6.58,6.63,1.52-2.02,1.1-7.77,6.17-7.01h0Zm-37.74,86.62c-1.67-1.22-3.29-3.22-4.12-5.4.78,2.83,2.35,4.52,3.7,5.64-3.93,1.95-6.17-5.62-3.78-7.38,1.29,1.84,6.25,3.06,4.21,7.13h0Zm-.24,1.19c-.69,1.96-2.13,4.07-3.99,5.5,2.49-1.56,3.65-3.56,4.34-5.16,3,3.21-3.6,7.53-5.97,5.74,1.39-1.76,1.13-6.87,5.62-6.08h0Zm-26.49-15.59c-2.16.89-5.03,1.26-7.61.78,3.17.92,5.73.4,7.6-.22-.45,4.93-9.03,2.63-9.32-.71,2.53-.16,6.63-4.2,9.33.15h0Zm-31.9-1.52c-2.06-1.1-4.17-3.09-5.42-5.4,1.3,3.04,3.31,4.69,4.98,5.74-4.1,2.78-7.75-5.34-5.34-7.66,1.72,1.86,7.44,2.47,5.78,7.32h0Zm1.22-.39c-.93-5.05,4.83-4.81,6.81-6.39,2.03,2.66-2.77,10.14-6.42,6.79,1.8-.79,4.04-2.12,5.77-4.94-1.59,2.09-3.96,3.76-6.16,4.54h0Zm-1.3,1.76c-.46,2.29-1.76,4.87-3.61,6.74,2.53-2.12,3.54-4.53,4.07-6.42,3.84,3.13-2.87,8.96-5.8,7.33,1.28-2.18.22-7.85,5.35-7.65h0Zm18.12-7.83c-2.06-1.1-4.17-3.09-5.42-5.4,1.3,3.04,3.31,4.69,4.98,5.74-4.1,2.78-7.75-5.34-5.34-7.66,1.72,1.86,7.44,2.47,5.78,7.32h0Zm1.22-.39c-.93-5.05,4.83-4.81,6.81-6.39,2.03,2.66-2.77,10.14-6.42,6.79,1.8-.79,4.04-2.12,5.77-4.94-1.59,2.09-3.96,3.76-6.16,4.54h0Zm-1.3,1.76c-.46,2.29-1.76,4.87-3.61,6.74,2.53-2.12,3.54-4.53,4.07-6.42,3.84,3.13-2.87,8.96-5.8,7.32,1.28-2.18.22-7.85,5.35-7.65h0Zm34.06-26.63c-2.06-1.1-4.17-3.09-5.42-5.4,1.3,3.04,3.31,4.69,4.98,5.74-4.1,2.78-7.75-5.34-5.34-7.66,1.72,1.86,7.44,2.47,5.79,7.32h-.01Zm1.22-.39c-.93-5.05,4.83-4.81,6.81-6.39,2.03,2.66-2.77,10.14-6.42,6.79,1.8-.79,4.04-2.12,5.77-4.94-1.59,2.09-3.96,3.76-6.16,4.54h0Zm-1.3,1.76c-.46,2.29-1.76,4.87-3.61,6.74,2.53-2.12,3.54-4.53,4.07-6.42,3.84,3.13-2.87,8.96-5.8,7.32,1.28-2.18.22-7.85,5.35-7.65h0Zm59.1,19.86c.98-2.12,2.85-4.33,5.07-5.73-2.96,1.47-4.49,3.58-5.44,5.3-3.01-3.93,4.87-8.05,7.34-5.78-1.75,1.82-2.03,7.58-6.98,6.21h0Zm.46,1.19c4.99-1.22,5.09,4.53,6.78,6.42-2.53,2.19-10.29-2.18-7.15-6.01.89,1.76,2.36,3.91,5.27,5.47-2.19-1.46-3.98-3.74-4.9-5.88h0Zm-1.82-1.2c-2.31-.33-4.97-1.48-6.94-3.21,2.26,2.41,4.72,3.26,6.65,3.68-2.89,4.02-9.11-2.35-7.65-5.36,2.26,1.15,7.85-.24,7.95,4.9h0Zm42.51,15.72c.22-4.14,4.7-2.88,6.55-3.75,1.1,2.47-4.09,7.45-6.32,4.13,1.57-.28,3.58-.92,5.47-2.8-1.64,1.35-3.83,2.21-5.7,2.42h0Zm-.79-.66c-1.41-1.25-2.69-3.22-3.25-5.27.45,2.63,1.72,4.31,2.84,5.45-3.75,1.42-5.1-5.65-2.76-7.03,1.01,1.78,5.4,3.34,3.17,6.85h0Zm.45,1.71c3.9,1.4,1.4,5.33,1.7,7.35-2.69.34-5.96-6.06-2.14-7.24-.18,1.59-.15,3.69,1.11,6.04-.82-1.96-1.02-4.3-.67-6.15h0Zm-11.73-9.4c.31-5.84,6.61-4.05,9.22-5.27,1.55,3.48-5.75,10.49-8.9,5.82,2.21-.4,5.04-1.29,7.7-3.94-2.31,1.9-5.38,3.11-8.02,3.4h0Zm-1.12-.93c-1.98-1.76-3.79-4.53-4.57-7.41.63,3.7,2.43,6.07,4,7.68-5.27,1.99-7.17-7.95-3.89-9.89,1.42,2.51,7.59,4.7,4.47,9.64h0v-.02Zm35.65,14.6c.31-5.84,6.61-4.05,9.22-5.27,1.55,3.48-5.75,10.49-8.9,5.82,2.21-.4,5.04-1.29,7.7-3.94-2.31,1.9-5.38,3.11-8.02,3.4h0Zm-1.12-.93c-1.98-1.76-3.79-4.53-4.57-7.41.63,3.7,2.43,6.07,4,7.68-5.27,1.99-7.17-7.95-3.89-9.9,1.42,2.51,7.59,4.7,4.47,9.64h0Zm.63,2.41c5.5,1.97,1.97,7.5,2.39,10.35-3.78.48-8.39-8.53-3.01-10.2-.25,2.22-.22,5.2,1.56,8.51-1.15-2.76-1.42-6.05-.95-8.66h0Zm-67.39-51.88c-3.04-.15-2.12-3.44-2.76-4.79,1.81-.82,5.47,2.97,3.05,4.63-.22-1.15-.68-2.62-2.07-4,.99,1.2,1.63,2.79,1.79,4.17h0Zm-.49.59c-.92,1.04-2.35,1.98-3.85,2.39,1.93-.34,3.16-1.28,3.99-2.09,1.05,2.74-4.13,3.75-5.14,2.05,1.3-.74,2.43-3.96,5.01-2.35h0Zm1.25-.33c.91-2.56,3.3-1.39,4.86-1.26-1.33-2.9,1.56-9.44,5.41-7.2-1.59,1.16-3.5,2.95-4.58,6.07,1.1-2.39,3.06-4.52,5.04-5.76,1.99,4.73-3.68,5.74-5.27,7.7-.05-.05-.11-.1-.15-.15-.65,1.77-4.43,3.4-5.22.92,1.16.13,2.71.1,4.43-.83-1.43.61-3.15.75-4.51.51h0v.02-.02Zm17.86,12.33c.27-5.13,5.81-3.56,8.1-4.63,1.36,3.06-5.05,9.22-7.82,5.11,1.94-.35,4.43-1.13,6.77-3.46-2.03,1.67-4.73,2.73-7.04,2.99h-.01Zm-.99-.82c-1.74-1.55-3.33-3.98-4.02-6.51.55,3.26,2.13,5.34,3.51,6.74-4.63,1.75-6.3-6.99-3.42-8.69,1.25,2.2,6.67,4.13,3.93,8.47h0Zm.55,2.12c4.83,1.73,1.73,6.59,2.11,9.09-3.32.42-7.38-7.49-2.64-8.96-.22,1.96-.19,4.57,1.37,7.48-1.02-2.43-1.25-5.31-.83-7.61h0Zm-5.45-22.33c3.96-3.26,6.55,1.88,8.89,2.83-1.33,3.07-10.21,2.51-9.05-2.3,1.57,1.19,3.83,2.49,7.13,2.64-2.6-.36-5.21-1.64-6.97-3.17h0Zm-.06-1.28c-.04-2.33.68-5.14,2.09-7.37-2.02,2.61-2.49,5.17-2.59,7.14-4.42-2.23.89-9.37,4.1-8.4-.79,2.41,1.46,7.71-3.59,8.62h-.01Zm-8.88-14.2c-2.19-4.64,3.43-5.89,4.93-7.93,2.65,2.05-.07,10.52-4.46,8.21,1.54-1.23,3.36-3.09,4.3-6.26-.99,2.43-2.86,4.65-4.78,5.97h.01Zm-1.25-.25c-2.27-.54-4.82-1.92-6.63-3.83,2.03,2.6,4.41,3.68,6.29,4.27-3.25,3.74-8.86-3.16-7.14-6.03,2.14,1.35,7.83.47,7.48,5.59h0Zm1.49,1.6c5.07-.77,4.66,4.98,6.17,7.01-2.73,1.95-10.05-3.09-6.58-6.63.73,1.83,2,4.11,4.76,5.93-2.05-1.65-3.63-4.08-4.34-6.3h0Zm-43.17-6.26c5.14-.02,3.85-5.63,5.04-7.86-2.99-1.52-9.46,4.58-5.5,7.55.45-1.92,1.36-4.37,3.8-6.58-1.77,1.94-2.96,4.59-3.34,6.89h0Zm.77,1.02c4.47-2.53,6.12,2.99,8.26,4.34-1.85,2.79-10.49.69-8.51-3.85,1.34,1.45,3.33,3.13,6.56,3.84-2.5-.82-4.84-2.53-6.31-4.34h0Zm-2.09-.66c-2.31.31-5.19-.08-7.55-1.22,2.83,1.71,5.43,1.87,7.4,1.75-1.7,4.65-9.41.21-8.82-3.09,2.48.5,7.48-2.35,8.98,2.56h-.01Zm-18.32,4.6c-5.01-1.09-2.58-6.31-3.28-8.74,3.23-.85,8.29,6.47,3.8,8.54-.04-1.97-.41-4.55-2.34-7.23,1.32,2.27,1.94,5.1,1.82,7.44h0Zm-.96.84c-1.81,1.47-4.46,2.65-7.08,2.92,3.3-.02,5.6-1.25,7.21-2.39.99,4.86-7.91,5.1-9.13,1.98,2.37-.88,5.15-5.92,8.98-2.52h.02Zm2.18-.21c2.49-4.49,6.78-.65,9.32-.62-.12,3.35-8.58,6.07-9.27,1.18,1.89.53,4.47.92,7.6-.15-2.56.62-5.44.38-7.64-.39h0v-.02Zm-14.41,10.86c-4.43-.23-3.09-5.03-4.02-7.01,2.65-1.18,7.98,4.37,4.43,6.77-.31-1.68-.99-3.83-3-5.85,1.45,1.76,2.36,4.09,2.59,6.1h0Zm-.71.85c-1.34,1.51-3.44,2.89-5.64,3.48,2.82-.49,4.61-1.85,5.84-3.04,1.52,4.01-6.04,5.46-7.52,2.96,1.91-1.08,3.57-5.77,7.33-3.4h-.01Zm1.83-.48c1.5-4.18,5.7-1.51,7.87-1.83.37,2.87-6.48,6.39-7.75,2.29,1.69.19,3.95.16,6.47-1.19-2.09.88-4.6,1.09-6.58.72h-.01Zm-39.83,28.32c-.61,5.75-6.75,3.66-9.39,4.73-1.35-3.53,6.24-10.08,9.1-5.29-2.2.28-5.05,1.01-7.81,3.5,2.39-1.76,5.48-2.79,8.11-2.94h0Zm1.06.98c1.87,1.85,3.51,4.67,4.13,7.57-.43-3.7-2.09-6.13-3.55-7.79,5.32-1.69,6.67,8.24,3.33,9.99-1.27-2.56-7.26-5.04-3.91-9.76h0Zm-.5-2.41c-5.34-2.24-1.56-7.52-1.83-10.36,3.76-.28,7.85,8.87,2.44,10.24.37-2.19.49-5.13-1.1-8.49,1,2.79,1.09,6.05.49,8.61h0Zm5.51-15.62c-2.93,4.99-7.66.55-10.51.45.22-3.76,9.83-6.61,10.47-1.07-2.12-.65-5.01-1.15-8.56-.03,2.89-.62,6.14-.28,8.6.65h0Zm.56,1.32c.94,2.46,1.27,5.7.65,8.6,1.13-3.55.62-6.44-.02-8.56,5.54.65,2.69,10.25-1.08,10.47-.11-2.85-4.53-7.59.45-10.51h0Zm.54-2.4c-3.93-4.23,1.68-7.49,2.59-10.19,3.54,1.29,3.5,11.32-1.99,10.34,1.24-1.84,2.56-4.47,2.49-8.19-.24,2.95-1.49,5.97-3.1,8.05h0Zm-24.21,47.63c-2.09-1.59-5.11-2.83-8.07-3.04,3.72-.08,6.36,1.22,8.21,2.43.94-5.5-9.08-5.47-10.36-1.92,2.7.9,6.01,6.49,10.21,2.53h.01Zm.17,1.43c-5.61,1.4-2.69,7.19-3.39,9.95,3.67.85,9.12-7.57,3.97-9.75.03,2.22-.3,5.14-2.38,8.23,1.41-2.6,2.01-5.82,1.79-8.44h0Z"/>
    <path class="cls-5" d="m131.52,254.72C58.98,254.72.15,195.89.15,123.35.15,77.3,23.87,36.77,59.76,13.32,30.43,35.21,11.42,70.21,11.42,109.62c0,66.32,53.78,120.09,120.09,120.09s120.09-53.78,120.09-120.09c0-39.42-19-74.4-48.33-96.3,35.88,23.45,59.6,63.98,59.6,110.03,0,72.54-58.83,131.37-131.37,131.37h.02Z"/>
    <g class="cls-1">
      <text class="cls-2" transform="translate(5.57 148.75) rotate(71.25) scale(.96 1)"><tspan x="0" y="0">M</tspan></text>
    </g>
    <g class="cls-1">
      <text class="cls-2" transform="translate(10.35 162.48) rotate(66.08) scale(.96 1)"><tspan x="0" y="0">A</tspan></text>
    </g>
    <g class="cls-1">
      <text class="cls-2" transform="translate(14.61 172.06) rotate(61.62) scale(.96 1)"><tspan x="0" y="0">R</tspan></text>
    </g>
    <g class="cls-1">
      <text class="cls-2" transform="translate(19.62 181.32) rotate(57.39) scale(.96 1)"><tspan x="0" y="0">Y</tspan></text>
    </g>
    <g class="cls-1">
      <text class="cls-2" transform="translate(25.28 190.11) rotate(53.09) scale(.96 1)"><tspan x="0" y="0">L</tspan></text>
    </g>
    <g class="cls-1">
      <text class="cls-2" transform="translate(31.39 198.22) rotate(48.76) scale(.96 1)"><tspan x="0" y="0">A</tspan></text>
    </g>
    <g class="cls-1">
      <text class="cls-2" transform="translate(38.32 206.2) rotate(43.69) scale(.96 1)"><tspan x="0" y="0">N</tspan></text>
    </g>
    <g class="cls-1">
      <text class="cls-2" transform="translate(48.09 215.46) rotate(38.12) scale(.96 1)"><tspan x="0" y="0">D</tspan></text>
    </g>
    <g class="cls-1">
      <text class="cls-2" transform="translate(61.18 225.25) rotate(32.29) scale(.96 1)"><tspan x="0" y="0">I</tspan></text>
    </g>
    <g class="cls-1">
      <text class="cls-2" transform="translate(66.63 228.83) rotate(27.92) scale(.96 1)"><tspan x="0" y="0">N</tspan></text>
    </g>
    <g class="cls-1">
      <text class="cls-2" transform="translate(78.52 234.98) rotate(23.09) scale(.96 1)"><tspan x="0" y="0">S</tspan></text>
    </g>
    <g class="cls-1">
      <text class="cls-2" transform="translate(86.1 238.25) rotate(18.78) scale(.96 1)"><tspan x="0" y="0">T</tspan></text>
    </g>
    <g class="cls-1">
      <text class="cls-2" transform="translate(96.45 241.67) rotate(14.86) scale(.96 1)"><tspan x="0" y="0">I</tspan></text>
    </g>
    <g class="cls-1">
      <text class="cls-2" transform="translate(102.69 243.39) rotate(10.92) scale(.96 1)"><tspan x="0" y="0">T</tspan></text>
    </g>
    <g class="cls-1">
      <text class="cls-2" transform="translate(113.56 245.48) rotate(5.68) scale(.96 1)"><tspan x="0" y="0">U</tspan></text>
    </g>
    <g class="cls-1">
      <text class="cls-2" transform="translate(125.59 246.59) rotate(.97) scale(.96 1)"><tspan x="0" y="0">T</tspan></text>
    </g>
    <g class="cls-1">
      <text class="cls-2" transform="translate(136.62 246.71) rotate(-4.47) scale(.96 1)"><tspan x="0" y="0">E</tspan></text>
    </g>
    <g class="cls-1">
      <text class="cls-2" transform="translate(151.94 245.26) rotate(-11.7) scale(.96 1)"><tspan x="0" y="0">O</tspan></text>
    </g>
    <g class="cls-1">
      <text class="cls-2" transform="translate(164.28 242.62) rotate(-16.8) scale(.96 1)"><tspan x="0" y="0">F</tspan></text>
    </g>
    <g class="cls-1">
      <text class="cls-2" transform="translate(177.55 238.4) rotate(-23.63) scale(.96 1)"><tspan x="0" y="0">D</tspan></text>
    </g>
    <g class="cls-1">
      <text class="cls-2" transform="translate(188.97 233.35) rotate(-28.93) scale(.96 1)"><tspan x="0" y="0">E</tspan></text>
    </g>
    <g class="cls-1">
      <text class="cls-2" transform="translate(198.87 227.83) rotate(-33.77) scale(.96 1)"><tspan x="0" y="0">V</tspan></text>
    </g>
    <g class="cls-1">
      <text class="cls-2" transform="translate(207.74 221.88) rotate(-38.53) scale(.96 1)"><tspan x="0" y="0">E</tspan></text>
    </g>
    <g class="cls-1">
      <text class="cls-2" transform="translate(216.55 214.81) rotate(-43.14) scale(.96 1)"><tspan x="0" y="0">L</tspan></text>
    </g>
    <g class="cls-1">
      <text class="cls-2" transform="translate(224.03 207.83) rotate(-47.97) scale(.96 1)"><tspan x="0" y="0">O</tspan></text>
    </g>
    <g class="cls-1">
      <text class="cls-2" transform="translate(232.38 198.45) rotate(-52.69) scale(.96 1)"><tspan x="0" y="0">P</tspan></text>
    </g>
    <g class="cls-1">
      <text class="cls-2" transform="translate(238.46 190.59) rotate(-57.78) scale(.96 1)"><tspan x="0" y="0">M</tspan></text>
    </g>
    <g class="cls-1">
      <text class="cls-2" transform="translate(246.13 178.23) rotate(-63.16) scale(.96 1)"><tspan x="0" y="0">E</tspan></text>
    </g>
    <g class="cls-1">
      <text class="cls-2" transform="translate(251.28 168.1) rotate(-68.27) scale(.96 1)"><tspan x="0" y="0">N</tspan></text>
    </g>
    <g class="cls-1">
      <text class="cls-2" transform="translate(256.17 155.61) rotate(-73.29) scale(.96 1)"><tspan x="0" y="0">T</tspan></text>
    </g>
  </g>
</svg>